# xmcd CD database file
#
# Track frame offsets:
#	150
#	17608
#	31496
#	55025
#	79226
#	94472
#	111986
#	135863
#	154864
#	175501
#	202457
#	223491
#	248984
#	264872
#	279694
#
# Disc length: 4048 seconds
#
# Revision: 0
# Processed by: cddbd v1.5.2PL0 Copyright (c) Steve Scherf et al.
# Submitted via: CDex 1.51
#
DISCID=da0fce0f
DTITLE=Bix Beiderbecke Memorial Jazz Band - One More Time
DYEAR=2003
DGENRE=Jazz
TTITLE0=Nobody's Sweetheart
TTITLE1=Angry
TTITLE2=Riverboat Shuffle
TTITLE3=Apex Blues
TTITLE4=Margie
TTITLE5=Rhythm King
TTITLE6=Since My Best Gal Turned Me Down
TTITLE7=Singin' The Blues
TTITLE8=Oh Baby - Don't Say No
TTITLE9=Somebody Stole My Gal
TTITLE10=Jazz Me Blues
TTITLE11=John's Blues For Bix
TTITLE12=Dans Le Rue D'Antibes
TTITLE13=Wa Da Da (Everybody's Doin It Now)
TTITLE14=Tiger Rag
EXTD=YEAR: 2003
EXTT0=
EXTT1=
EXTT2=
EXTT3=
EXTT4=
EXTT5=
EXTT6=
EXTT7=
EXTT8=
EXTT9=
EXTT10=
EXTT11=
EXTT12=
EXTT13=
EXTT14=
PLAYORDER=
